<?xml version="1.0" standalone="no"?>
<!DOCTYPE svg PUBLIC "-//W3C//DTD SVG 20010904//EN"
 "http://www.w3.org/TR/2001/REC-SVG-20010904/DTD/svg10.dtd">
<svg version="1.0" xmlns="http://www.w3.org/2000/svg"
 width="500.000000pt" height="397.000000pt" viewBox="0 0 500.000000 397.000000"
 preserveAspectRatio="xMidYMid meet">
<metadata>
Created by potrace 1.16, written by Peter Selinger 2001-2019
</metadata>
<g transform="translate(0.000000,397.000000) scale(0.100000,-0.100000)"
fill="#000000" stroke="none">
<path d="M2195 3884 c-296 -73 -514 -285 -585 -568 -40 -159 -23 -359 44 -510
15 -33 23 -63 19 -67 -6 -6 -339 -96 -378 -102 -16 -3 -39 -37 -103 -153 -87
-158 -132 -247 -132 -262 0 -7 16 -45 35 -84 19 -40 33 -73 32 -75 -3 -2 -74
-18 -407 -89 -63 -14 -116 -27 -119 -30 -17 -17 -27 -239 -10 -249 6 -4 8 -13
5 -21 -3 -8 0 -14 7 -15 7 -1 19 -2 28 -3 10 0 37 -19 60 -41 24 -22 114 -104
199 -181 85 -78 233 -213 329 -300 95 -88 184 -167 197 -178 19 -14 45 -19
112 -21 48 -1 117 -8 155 -15 64 -13 68 -12 90 7 20 19 337 258 388 293 12 8
40 29 63 45 23 17 73 53 111 80 39 27 72 52 75 55 9 11 165 107 209 129 l44
23 41 -41 c48 -46 31 -51 191 54 153 100 658 418 922 579 197 121 429 269 508
323 69 49 70 50 73 99 2 44 -4 61 -61 164 l-63 115 -110 6 c-60 4 -244 9 -409
13 -560 11 -657 17 -650 35 13 33 35 178 35 233 0 129 -54 305 -128 416 -97
147 -250 264 -417 319 -101 33 -303 42 -400 17z m311 -49 c78 -17 181 -57 236
-92 61 -37 178 -154 219 -216 57 -87 97 -193 115 -306 16 -95 16 -108 1 -203
-48 -290 -252 -516 -537 -594 -46 -13 -100 -18 -185 -18 -108 0 -129 3 -210
31 -138 48 -200 87 -295 182 -71 71 -94 103 -132 181 -110 223 -103 493 18
691 77 127 230 258 354 305 134 50 300 66 416 39z m1159 -1015 c182 -5 355
-13 385 -17 l55 -7 -45 -8 c-25 -4 -72 -10 -105 -13 -33 -3 -91 -10 -130 -15
-38 -6 -216 -28 -395 -50 -179 -22 -350 -44 -380 -49 -30 -5 -58 -7 -62 -5 -3
2 8 28 25 58 18 30 40 68 49 85 l17 31 128 0 c70 -1 277 -5 458 -10z m609 -82
c11 -15 13 -25 6 -32 -6 -6 -65 -18 -133 -28 -262 -37 -1099 -176 -1230 -204
-38 -8 -86 -14 -109 -14 l-40 0 59 47 c32 27 67 58 78 71 17 19 38 26 120 38
55 7 145 21 200 29 55 8 118 17 140 19 22 3 90 12 150 20 61 8 144 18 185 22
41 3 86 7 100 9 66 8 130 15 185 20 33 3 87 10 120 14 115 16 152 13 169 -11z
m-2538 -65 c29 -45 104 -121 156 -160 27 -20 46 -39 41 -43 -4 -5 -62 -20
-128 -34 -125 -28 -608 -150 -636 -161 -10 -3 -20 -2 -23 3 -5 9 85 187 137
269 27 43 48 53 177 82 25 6 90 24 145 40 55 17 103 30 106 30 4 1 15 -11 25
-26z m2484 -40 c0 -5 -8 -22 -19 -39 -18 -29 -28 -33 -322 -107 -630 -160
-1499 -376 -1629 -406 -74 -17 -202 -47 -285 -66 -716 -171 -1325 -307 -1342
-301 -18 7 -18 169 0 184 6 5 59 20 117 32 58 12 233 50 390 85 157 34 375 82
485 105 110 23 236 50 280 60 80 19 344 75 1010 214 198 42 511 103 695 137
184 34 389 72 455 84 135 25 165 28 165 18z m81 -64 c22 -11 39 -24 37 -29 -4
-12 -293 -197 -1108 -709 -151 -95 -320 -202 -375 -236 l-99 -63 -126 118
c-69 65 -158 152 -199 193 -73 75 -73 75 -50 88 31 16 1623 544 1704 565 33 8
76 19 95 24 23 6 42 20 53 40 10 16 20 30 23 30 3 0 23 -9 45 -21z m-2191
-168 c47 -17 95 -31 107 -31 24 0 39 -15 23 -25 -5 -3 -22 -8 -37 -10 -47 -6
-821 -164 -932 -190 -64 -15 -109 -21 -116 -15 -17 14 -38 81 -28 91 18 18
854 221 883 214 8 -2 53 -17 100 -34z m299 -646 c136 -170 154 -196 145 -205
-8 -7 -258 -144 -424 -232 -77 -41 -637 -313 -663 -321 -13 -5 -43 17 -110 81
-133 125 -587 536 -603 545 -8 4 -14 13 -14 19 0 15 60 4 309 -53 141 -33 223
-48 242 -44 17 4 103 34 192 67 142 52 690 248 772 275 38 13 37 14 154 -132z"/>
<path d="M2213 3740 c-87 -23 -131 -45 -208 -104 -87 -66 -120 -104 -159 -182
-59 -119 -80 -205 -80 -324 0 -275 153 -503 400 -596 158 -59 359 -35 504 60
106 70 209 206 255 335 27 76 37 194 25 284 -51 372 -394 617 -737 527z m-67
-82 c3 -4 3 -20 -1 -37 -5 -22 -30 -51 -88 -101 -73 -62 -86 -70 -124 -70 -23
0 -44 4 -47 9 -13 20 93 132 184 194 23 16 62 19 76 5z m473 -7 c68 -35 201
-162 201 -192 0 -5 -19 -9 -42 -9 -40 0 -49 6 -125 78 -71 66 -83 82 -83 110
0 38 0 38 49 13z m120 -282 c1 -20 -5 -42 -13 -49 -8 -6 -16 -21 -18 -32 -2
-14 -21 -27 -62 -44 -33 -13 -66 -24 -73 -24 -8 0 -54 30 -104 66 l-90 66 3
71 3 70 85 37 85 36 92 -80 c84 -74 92 -84 92 -117z m-484 156 l80 -33 0 -68
0 -68 -93 -72 -92 -73 -63 26 c-34 13 -66 29 -71 33 -5 5 -8 42 -7 82 l2 73
67 68 c36 37 73 67 82 67 8 -1 51 -16 95 -35z m492 -320 c12 -22 20 -42 17
-46 -2 -4 0 -10 6 -14 6 -3 19 -23 29 -43 l19 -37 -37 -100 -38 -100 -49 -16
c-101 -34 -96 -35 -154 32 l-53 60 38 117 c20 64 42 122 48 129 15 15 129 62
142 59 6 -1 20 -20 32 -41z m-622 -19 c16 -11 30 -35 40 -74 9 -31 25 -83 35
-114 l18 -57 -45 -60 -46 -59 -71 20 c-39 11 -73 22 -75 24 -3 3 -22 49 -42
102 l-37 97 41 75 c58 107 51 102 109 80 27 -10 60 -26 73 -34z m-212 -243
c38 -98 38 -101 23 -137 -9 -21 -20 -35 -24 -32 -5 3 -26 39 -46 79 -40 81
-72 197 -62 223 6 14 10 14 39 -9 24 -18 41 -49 70 -124z m994 55 c-19 -78
-69 -187 -97 -213 -16 -15 -18 -13 -29 27 -11 40 -10 50 19 127 38 105 40 108
76 131 43 29 51 12 31 -72z m-408 -113 c70 -80 69 -76 7 -153 -31 -38 -56 -73
-56 -78 0 -4 16 -25 37 -46 l36 -37 -29 -12 c-39 -16 -231 -17 -268 -1 l-29
13 33 34 c29 30 41 35 78 35 57 0 52 23 -7 30 -38 4 -48 12 -95 70 l-53 65 46
57 46 58 111 0 112 0 31 -35z"/>
<path d="M777 1102 c-95 -96 -113 -126 -80 -139 12 -5 40 19 105 88 49 52 93
99 99 105 6 7 3 17 -9 27 -17 15 -24 11 -115 -81z"/>
<path d="M485 958 c-122 -43 -170 -179 -99 -281 106 -149 347 -86 362 95 3 47
0 58 -30 102 -55 82 -145 115 -233 84z m120 -37 c20 -33 31 -40 62 -43 32 -2
41 -9 55 -37 17 -34 17 -35 -7 -59 -32 -31 -39 -56 -24 -83 10 -20 8 -26 -21
-52 -29 -26 -33 -27 -49 -13 -26 24 -89 21 -110 -5 -16 -20 -19 -21 -47 -6
-16 8 -39 26 -52 40 -20 21 -21 25 -7 37 22 19 18 53 -10 84 -14 15 -25 33
-25 39 0 26 32 57 58 57 20 1 34 11 54 40 23 34 33 40 63 40 30 0 38 -6 60
-39z"/>
</g>
</svg>
